<?xml version="1.0" standalone="no"?><!DOCTYPE svg PUBLIC "-//W3C//DTD SVG 1.1//EN" "http://www.w3.org/Graphics/SVG/1.1/DTD/svg11.dtd"><svg t="1682863778412" class="icon" viewBox="0 0 1024 1024" version="1.1" xmlns="http://www.w3.org/2000/svg" p-id="1639" xmlns:xlink="http://www.w3.org/1999/xlink" width="200" height="200"><path d="M538.947368 404.210526v-107.789473h80.842106v107.789473h80.842105v80.842106h-161.684211v80.842105h161.684211v80.842105h-161.684211v107.789474h-80.842105v-107.789474h-161.68421v-80.842105h161.68421v-80.842105h-161.68421v-80.842106h80.842105v-107.789473h80.842105v107.789473h80.842105zM118.730105 747.061895L105.229474 781.473684h-80.842106l49.637053-134.736842h85.477053c54.245053 141.824 191.595789 242.526316 352.498526 242.526316 208.357053 0 377.263158-168.906105 377.263158-377.263158h80.842105c0 253.008842-205.096421 458.105263-458.105263 458.105263-167.073684 0-313.236211-89.438316-393.269895-223.043368zM950.056421 377.263158h-85.557895C810.253474 235.439158 672.875789 134.736842 512 134.736842 303.642947 134.736842 134.736842 303.642947 134.736842 512H53.894737C53.894737 258.991158 258.991158 53.894737 512 53.894737c167.181474 0 313.424842 89.546105 393.431579 223.285895L919.174737 242.526316h80.842105l-49.960421 134.736842z" fill="#333333" p-id="1640"></path></svg>