<?xml version="1.0" standalone="no"?><!DOCTYPE svg PUBLIC "-//W3C//DTD SVG 1.1//EN" "http://www.w3.org/Graphics/SVG/1.1/DTD/svg11.dtd"><svg t="1682854567172" class="icon" viewBox="0 0 1024 1024" version="1.1" xmlns="http://www.w3.org/2000/svg" p-id="1586" xmlns:xlink="http://www.w3.org/1999/xlink" width="200" height="200"><path d="M871 152H152.013c-22.092 0-40 17.909-40 40v526.136c0.358 21.787 18.13 39.339 40 39.339l235.41-0.001 95.378 101.865 0.452 0.475c15.003 15.516 39.678 16.342 55.69 1.751l114.223-104.091H871c22.091 0 40-17.908 40-40V192c0-22.091-17.909-40-40-40z m-40 80v445.474H637.674l-0.553 0.005a40 40 0 0 0-26.39 10.43l-96.505 87.944-80.26-85.717-0.38-0.401a40 40 0 0 0-28.818-12.26l-212.756-0.001V232H831z" fill="#000000" p-id="1587"></path><path d="M338 452m-60 0a60 60 0 1 0 120 0 60 60 0 1 0-120 0Z" fill="#000000" p-id="1588"></path><path d="M512 452m-60 0a60 60 0 1 0 120 0 60 60 0 1 0-120 0Z" fill="#000000" p-id="1589"></path><path d="M686 452m-60 0a60 60 0 1 0 120 0 60 60 0 1 0-120 0Z" fill="#000000" p-id="1590"></path></svg>