<?xml version="1.0" standalone="no"?><!DOCTYPE svg PUBLIC "-//W3C//DTD SVG 1.1//EN" "http://www.w3.org/Graphics/SVG/1.1/DTD/svg11.dtd"><svg t="1682854369483" class="icon" viewBox="0 0 1024 1024" version="1.1" xmlns="http://www.w3.org/2000/svg" p-id="1295" xmlns:xlink="http://www.w3.org/1999/xlink" width="200" height="200"><path d="M654.82 818.42H360.64c-15.22 0-27.56-12.35-27.56-27.56 0-15.22 12.35-27.56 27.56-27.56h266.62V216.56c0-24.1-19.61-43.71-43.71-43.71h-464c-24.1 0-43.71 19.61-43.71 43.71v503.02c0 24.1 19.61 43.71 43.71 43.71h62.19c15.22 0 27.56 12.35 27.56 27.56 0 15.22-12.35 27.56-27.56 27.56h-62.19c-54.49 0-98.83-44.34-98.83-98.83V216.56c0-54.49 44.34-98.83 98.83-98.83h464c54.49 0 98.83 44.34 98.83 98.83v574.3c0 15.21-12.35 27.56-27.56 27.56z" fill="#0C0B0B" p-id="1296"></path><path d="M756.38 907.81c-64.51 0-116.99-52.48-116.99-116.99 0-64.52 52.48-117.01 116.99-117.01s116.99 52.48 116.99 117.01c0 64.51-52.49 116.99-116.99 116.99z m0-178.88c-34.11 0-61.87 27.76-61.87 61.89 0 34.11 27.76 61.87 61.87 61.87s61.87-27.76 61.87-61.87c-0.01-34.13-27.76-61.89-61.87-61.89zM271.12 907.81c-64.51 0-116.99-52.48-116.99-116.99 0-64.52 52.48-117.01 116.99-117.01s116.99 52.48 116.99 117.01c0 64.51-52.49 116.99-116.99 116.99z m0-178.88c-34.11 0-61.87 27.76-61.87 61.89 0 34.11 27.76 61.87 61.87 61.87s61.87-27.76 61.87-61.87c-0.01-34.13-27.76-61.89-61.87-61.89z" fill="#0C0B0B" p-id="1297"></path><path d="M978.03 818.42H845.82c-15.22 0-27.56-12.35-27.56-27.56 0-15.22 12.35-27.56 27.56-27.56h104.65V622.58l-96.8-205.07H682.38v350.52c7.3 4.95 12.11 13.33 12.11 22.82 0 15.22-12.35 27.56-27.56 27.56h-12.11c-15.22 0-27.56-12.35-27.56-27.56v-400.9c0-15.22 12.35-27.56 27.56-27.56h216.31c10.66 0 20.37 6.15 24.92 15.79l106.91 226.46c1.74 3.68 2.64 7.7 2.64 11.77v174.45c-0.01 15.21-12.35 27.56-27.57 27.56z" fill="#0C0B0B" p-id="1298"></path></svg>