<?xml version="1.0" standalone="no"?><!DOCTYPE svg PUBLIC "-//W3C//DTD SVG 1.1//EN" "http://www.w3.org/Graphics/SVG/1.1/DTD/svg11.dtd"><svg class="icon" width="200px" height="200.00px" viewBox="0 0 1024 1024" version="1.1" xmlns="http://www.w3.org/2000/svg"><path d="M367.36 482.304H195.9936c-63.3344 0-114.6368-51.3536-114.6368-114.6368V196.2496c0-63.3344 51.3536-114.6368 114.6368-114.6368h171.4176c63.3344 0 114.6368 51.3536 114.6368 114.6368V367.616c0 63.3344-51.3536 114.688-114.688 114.688zM367.36 938.752H195.9936c-63.3344 0-114.6368-51.3536-114.6368-114.6368v-171.4176c0-63.3344 51.3536-114.6368 114.6368-114.6368h171.4176c63.3344 0 114.6368 51.3536 114.6368 114.6368v171.4176c0 63.3344-51.3536 114.6368-114.688 114.6368zM828.672 938.752h-171.4176c-63.3344 0-114.6368-51.3536-114.6368-114.6368v-171.4176c0-63.3344 51.3536-114.6368 114.6368-114.6368h171.4176c63.3344 0 114.6368 51.3536 114.6368 114.6368v171.4176c0 63.3344-51.3024 114.6368-114.6368 114.6368zM828.672 482.304h-171.4176c-63.3344 0-114.6368-51.3536-114.6368-114.6368V196.2496c0-63.3344 51.3536-114.6368 114.6368-114.6368h171.4176c63.3344 0 114.6368 51.3536 114.6368 114.6368V367.616c0 63.3344-51.3024 114.688-114.6368 114.688z" fill="#FF623E" /></svg>