<?xml version="1.0" standalone="no"?><!DOCTYPE svg PUBLIC "-//W3C//DTD SVG 1.1//EN" "http://www.w3.org/Graphics/SVG/1.1/DTD/svg11.dtd"><svg class="icon" width="200px" height="200.00px" viewBox="0 0 1024 1024" version="1.1" xmlns="http://www.w3.org/2000/svg"><path d="M834.77 942H189.24C130.11 942 82 893.89 82 834.77c0-161.04 131.01-292.05 292.04-292.05h275.93C811 542.72 942 673.74 942 834.77 942 893.89 893.89 942 834.77 942zM374.04 602.72C246.09 602.72 142 706.82 142 834.77c0 26.04 21.19 47.23 47.24 47.23h645.54c26.04 0 47.23-21.19 47.23-47.23 0-127.95-104.08-232.05-232.03-232.05H374.04zM512 517c-119.93 0-217.5-97.57-217.5-217.5S392.07 82 512 82c119.92 0 217.5 97.57 217.5 217.5S631.92 517 512 517z m0-375c-86.85 0-157.5 70.65-157.5 157.5S425.15 457 512 457c86.86 0 157.5-70.65 157.5-157.5S598.86 142 512 142z" /></svg>