<?xml version="1.0" standalone="no"?><!DOCTYPE svg PUBLIC "-//W3C//DTD SVG 1.1//EN" "http://www.w3.org/Graphics/SVG/1.1/DTD/svg11.dtd"><svg class="icon" width="200px" height="200.00px" viewBox="0 0 1024 1024" version="1.1" xmlns="http://www.w3.org/2000/svg"><path d="M356.2 929.2c-2.2 0-4.4-0.2-6.6-0.4-2.2-0.2-4.4-0.6-6.6-1-2.2-0.4-4.4-1-6.4-1.6-2-0.6-4.2-1.4-6.2-2.2-2-0.8-4-1.8-6-2.8-1.8-1-3.8-2.2-5.6-3.4-1.8-1.2-3.6-2.6-5.4-4-1.8-1.4-3.4-2.8-4.8-4.4-1.6-1.6-3-3.2-4.4-5-1.4-1.6-2.8-3.4-4-5.4-1.2-1.8-2.4-3.8-3.4-5.6-1-2-2-4-2.8-6-0.8-2-1.6-4.2-2.2-6.2-0.6-2.2-1.2-4.2-1.6-6.4-0.4-2.2-0.8-4.4-1-6.6-0.2-2.2-0.4-4.4-0.4-6.6s0.2-4.4 0.4-6.6c0.2-2.2 0.6-4.4 1-6.6 0.4-2.2 1-4.4 1.6-6.4 0.6-2.2 1.4-4.2 2.2-6.2 0.8-2 1.8-4 2.8-6 1-2 2.2-3.8 3.4-5.6 1.2-1.8 2.6-3.6 4-5.4 1.4-1.6 2.8-3.4 4.4-4.8 1.6-1.6 3.2-3 4.8-4.4 1.8-1.4 3.4-2.8 5.4-4 1.8-1.2 3.8-2.4 5.6-3.4 2-1 4-2 6-2.8 2-0.8 4.2-1.6 6.2-2.2 2.2-0.6 4.2-1.2 6.4-1.6 2.2-0.4 4.4-0.8 6.4-1 4.4-0.4 8.8-0.4 13.2 0 2.2 0.2 4.4 0.6 6.6 1 2.2 0.4 4.4 1 6.4 1.6 2 0.6 4.2 1.4 6.2 2.2 2 0.8 4 1.8 6 2.8 2 1 3.8 2.2 5.6 3.4 1.8 1.2 3.6 2.6 5.4 4 1.6 1.4 3.4 2.8 4.8 4.4 1.6 1.6 3 3.2 4.4 5 1.4 1.6 2.8 3.4 4 5.4 1.2 1.8 2.4 3.8 3.4 5.6 1 2 2 4 2.8 6 0.8 2 1.6 4.2 2.2 6.2 0.6 2 1.2 4.2 1.6 6.4 0.4 2.2 0.8 4.4 1 6.6 0.2 2.2 0.4 4.4 0.4 6.6s-0.2 4.4-0.4 6.6c-0.2 2.2-0.6 4.4-1 6.6-0.4 2.2-1 4.4-1.6 6.4-0.6 2.2-1.4 4.2-2.2 6.2-0.8 2-1.8 4-2.8 6-1 2-2.2 3.8-3.4 5.6-1.2 1.8-2.6 3.6-4 5.4-1.4 1.6-2.8 3.4-4.4 4.8-1.6 1.6-3.2 3-5 4.4-1.6 1.4-3.4 2.8-5.2 4-1.8 1.2-3.8 2.4-5.8 3.4-1.8 1-4 2-6 2.8-2 0.8-4.2 1.6-6.2 2.2-2.2 0.6-4.2 1.2-6.4 1.6-2.2 0.4-4.4 0.8-6.4 1-2 0.4-4.2 0.4-6.4 0.4z m0-67.4z m0 0z m0 0z m0 0z m0 0z m0 0z m0 0zM828.6 929.2c-2.2 0-4.4-0.2-6.6-0.4-2.2-0.2-4.4-0.6-6.6-1-2.2-0.4-4.4-1-6.4-1.6-2-0.6-4.2-1.4-6.2-2.2-2-0.8-4-1.8-6-2.8-1.8-1-3.8-2.2-5.6-3.4-1.8-1.2-3.6-2.6-5.4-4-1.6-1.4-3.4-2.8-4.8-4.4s-3-3.2-4.4-5c-1.4-1.6-2.6-3.4-4-5.2-1.2-1.8-2.4-3.8-3.4-5.6-1-2-2-4-2.8-6-0.8-2-1.6-4.2-2.2-6.2-0.6-2.2-1.2-4.2-1.6-6.4-0.4-2.2-0.8-4.4-1-6.4-0.2-2.2-0.4-4.4-0.4-6.6s0.2-4.4 0.4-6.6c0.2-2.2 0.6-4.4 1-6.6 0.4-2.2 1-4.4 1.6-6.4 0.6-2 1.4-4.2 2.2-6.2 0.8-2 1.8-4 2.8-6 1-2 2.2-3.8 3.4-5.8 1.2-1.8 2.6-3.6 4-5.4 1.4-1.6 2.8-3.4 4.4-4.8s3.2-3 5-4.4c1.6-1.4 3.4-2.6 5.2-4 1.8-1.2 3.8-2.4 5.6-3.4 2-1 4-2 6-2.8 2-0.8 4.2-1.6 6.2-2.2 2.2-0.6 4.2-1.2 6.4-1.6 2.2-0.4 4.4-0.8 6.4-1 4.6-0.4 8.8-0.4 13.2 0 2.2 0.2 4.4 0.6 6.6 1 2.2 0.4 4.4 1 6.4 1.6 2 0.6 4.2 1.4 6.2 2.2 2 0.8 4 1.8 6 2.8 2 1 3.8 2.2 5.8 3.4 1.8 1.2 3.6 2.6 5.4 4 1.6 1.4 3.4 2.8 4.8 4.4s3 3.2 4.4 5c1.4 1.6 2.6 3.4 4 5.2 1.2 1.8 2.4 3.8 3.4 5.6 1 2 2 4 2.8 6 0.8 2 1.6 4.2 2.2 6.2 0.6 2.2 1.2 4.2 1.6 6.4 0.4 2.2 0.8 4.4 1 6.4 0.2 2.2 0.4 4.4 0.4 6.6s-0.2 4.4-0.4 6.6c-0.2 2.2-0.6 4.4-1 6.6-0.4 2.2-1 4.4-1.6 6.4-0.6 2-1.4 4.2-2.2 6.2-0.8 2-1.8 4-2.8 6-1 2-2.2 3.8-3.4 5.8-1.2 1.8-2.6 3.6-4 5.4-1.4 1.6-2.8 3.4-4.4 4.8s-3.2 3-5 4.4c-1.6 1.4-3.4 2.6-5.2 4-1.8 1.2-3.8 2.4-5.8 3.4-1.8 1-4 2-6 2.8-2 0.8-4.2 1.6-6.2 2.2-2.2 0.6-4.2 1.2-6.4 1.6-2.2 0.4-4.4 0.8-6.4 1-2.2 0.4-4.4 0.4-6.6 0.4z m0-67.4zM862.4 760.4h-540c-16.4 0-30.4-11.8-33.2-27.8L192.8 186.8H86.2c-18.6 0-33.8-15.2-33.8-33.8s15.2-33.8 33.8-33.8h135c16.4 0 30.4 11.8 33.2 27.8l96.4 545.8h511.6c18.6 0 33.8 15.2 33.8 33.8s-15.2 33.8-33.8 33.8zM848.6 625.6H322.4c-18.6 0-33.8-15.2-33.8-33.8s15.2-33.8 33.8-33.8h512.4l54-270h-634c-18.6 0-33.8-15.2-33.8-33.8s15.2-33.8 33.8-33.8h654.4a50.984 50.984 0 0 1 21.6 4.8c3.4 1.6 6.6 3.6 9.6 5.8 3 2.4 5.6 5 8 7.8 2.4 2.8 4.4 6 6 9.4 1.6 3.4 3 6.8 4 10.4 1 3.6 1.4 7.4 1.4 11 0 3.8-0.2 7.4-1 11.2L898 584.6c-0.6 2.8-1.4 5.6-2.4 8.4-1 2.8-2.4 5.4-3.8 7.8-1.4 2.4-3.2 4.8-5 7-2 2.2-4 4.2-6.2 6-2.2 1.8-4.6 3.4-7.2 4.8-2.6 1.4-5.2 2.6-8 3.6-2.6 1-5.4 1.6-8.4 2.2-2.6 0.8-5.6 1.2-8.4 1.2zM909.4 288z m-16.6-20.2z" /></svg>